<svg id="Layer_1" data-name="Layer 1" xmlns="http://www.w3.org/2000/svg" viewBox="0 0 35.11 34"><defs><style>.cls-1{fill:#433388;}.cls-2{fill:#ffaa0d;}.cls-3{fill:#00cbea;}.cls-4{fill:#f71963;}</style></defs><title>favicon</title><polygon class="cls-1" points="17.48 16.87 17.56 16.95 17.56 16.79 17.48 16.87"/><path class="cls-2" d="M17.61,17h0Z"/><path class="cls-2" d="M17.56,17V17h.05Z"/><rect class="cls-3" x="4.58" y="4.03" width="16.01" height="16.22"/><path class="cls-4" d="M1.55,17h16a0,0,0,0,1,0,0V33a0,0,0,0,1,0,0H12.11A10.56,10.56,0,0,1,1.55,22.45V17A0,0,0,0,1,1.55,17Z"/><path class="cls-1" d="M17.56,1h16a0,0,0,0,1,0,0V17a0,0,0,0,1,0,0H28.11A10.56,10.56,0,0,1,17.56,6.45V1A0,0,0,0,1,17.56,1Z" transform="translate(51.12 18) rotate(180)"/><rect class="cls-2" x="14.52" y="13.97" width="16.01" height="16.01" transform="translate(44.5 -0.56) rotate(90)"/></svg>